<mxfile host="65bd71144e">
    <diagram id="oiKbn5JQYO4-6ZcTdBz5" name="Page-1">
        <mxGraphModel dx="1155" dy="545" grid="1" gridSize="10" guides="1" tooltips="1" connect="1" arrows="1" fold="1" page="1" pageScale="1" pageWidth="1100" pageHeight="850" math="0" shadow="0">
            <root>
                <mxCell id="0"/>
                <mxCell id="1" parent="0"/>
                <mxCell id="2" value="&lt;b&gt;&lt;u&gt;&lt;font style=&quot;font-size: 18px;&quot;&gt;Nest JS Flow&lt;/font&gt;&lt;/u&gt;&lt;/b&gt;" style="text;html=1;strokeColor=none;fillColor=none;align=center;verticalAlign=middle;whiteSpace=wrap;rounded=0;" parent="1" vertex="1">
                    <mxGeometry x="420" y="50" width="200" height="30" as="geometry"/>
                </mxCell>
                <UserObject label="main" hedietLinkedDataV1_path="../src/main.ts" id="3">
                    <mxCell style="rounded=0;whiteSpace=wrap;html=1;fontSize=18;strokeColor=default;" parent="1" vertex="1">
                        <mxGeometry x="460" y="108" width="110" height="50" as="geometry"/>
                    </mxCell>
                </UserObject>
                <object label="&lt;b&gt;Queue Module&lt;/b&gt;" hedietLinkedDataV1_path="../src/queue/queue.module.ts" id="6">
                    <mxCell style="swimlane;fontStyle=0;childLayout=stackLayout;horizontal=1;startSize=30;horizontalStack=0;resizeParent=1;resizeParentMax=0;resizeLast=0;collapsible=1;marginBottom=0;whiteSpace=wrap;html=1;fontSize=18;" parent="1" vertex="1">
                        <mxGeometry x="430" y="255" width="170" height="120" as="geometry">
                            <mxRectangle x="290" y="268" width="160" height="40" as="alternateBounds"/>
                        </mxGeometry>
                    </mxCell>
                </object>
                <object label="Controller" hedietLinkedDataV1_path="../src/queue/queue.controller.ts" id="7">
                    <mxCell style="text;strokeColor=none;fillColor=none;align=left;verticalAlign=middle;spacingLeft=4;spacingRight=4;overflow=hidden;points=[[0,0.5],[1,0.5]];portConstraint=eastwest;rotatable=0;whiteSpace=wrap;html=1;fontSize=14;" parent="6" vertex="1">
                        <mxGeometry y="30" width="170" height="30" as="geometry"/>
                    </mxCell>
                </object>
                <object label="Service" hedietLinkedDataV1_path="../src/queue/queue.service.ts" id="8">
                    <mxCell style="text;strokeColor=default;fillColor=none;align=left;verticalAlign=middle;spacingLeft=4;spacingRight=4;overflow=hidden;points=[[0,0.5],[1,0.5]];portConstraint=eastwest;rotatable=0;whiteSpace=wrap;html=1;fontSize=14;" parent="6" vertex="1">
                        <mxGeometry y="60" width="170" height="30" as="geometry"/>
                    </mxCell>
                </object>
                <object label="Repository" hedietLinkedDataV1_path="../src/queue/queue.repository.ts" id="9">
                    <mxCell style="text;strokeColor=default;fillColor=none;align=left;verticalAlign=middle;spacingLeft=4;spacingRight=4;overflow=hidden;points=[[0,0.5],[1,0.5]];portConstraint=eastwest;rotatable=0;whiteSpace=wrap;html=1;fontSize=14;" parent="6" vertex="1">
                        <mxGeometry y="90" width="170" height="30" as="geometry"/>
                    </mxCell>
                </object>
                <mxCell id="25" value="" style="edgeStyle=orthogonalEdgeStyle;html=1;fontFamily=Helvetica;fontSize=18;fontColor=default;entryX=0;entryY=0.5;entryDx=0;entryDy=0;exitX=1;exitY=0.5;exitDx=0;exitDy=0;" parent="6" source="7" target="8" edge="1">
                    <mxGeometry relative="1" as="geometry">
                        <Array as="points">
                            <mxPoint x="180" y="45"/>
                            <mxPoint x="180" y="-35"/>
                            <mxPoint x="-20" y="-35"/>
                            <mxPoint x="-20" y="75"/>
                        </Array>
                    </mxGeometry>
                </mxCell>
                <mxCell id="30" value="" style="edgeStyle=orthogonalEdgeStyle;html=1;fontFamily=Helvetica;fontSize=18;fontColor=default;exitX=1;exitY=0.233;exitDx=0;exitDy=0;exitPerimeter=0;entryX=0;entryY=0.5;entryDx=0;entryDy=0;" parent="6" source="8" target="9" edge="1">
                    <mxGeometry relative="1" as="geometry">
                        <mxPoint x="160" y="105" as="targetPoint"/>
                        <Array as="points">
                            <mxPoint x="170" y="75"/>
                            <mxPoint x="180" y="75"/>
                            <mxPoint x="180" y="134"/>
                            <mxPoint x="-30" y="134"/>
                            <mxPoint x="-30" y="105"/>
                        </Array>
                    </mxGeometry>
                </mxCell>
                <object label="Messge Module" hedietLinkedDataV1_path="../src/message/message.module.ts" id="16">
                    <mxCell style="swimlane;fontStyle=1;childLayout=stackLayout;horizontal=1;startSize=30;horizontalStack=0;resizeParent=1;resizeParentMax=0;resizeLast=0;collapsible=1;marginBottom=0;whiteSpace=wrap;html=1;fontSize=18;" parent="1" vertex="1">
                        <mxGeometry x="665" y="285" width="180" height="90" as="geometry">
                            <mxRectangle x="430" y="195" width="160" height="40" as="alternateBounds"/>
                        </mxGeometry>
                    </mxCell>
                </object>
                <mxCell id="18" value="Service" style="text;strokeColor=default;fillColor=none;align=left;verticalAlign=middle;spacingLeft=4;spacingRight=4;overflow=hidden;points=[[0,0.5],[1,0.5]];portConstraint=eastwest;rotatable=0;whiteSpace=wrap;html=1;fontSize=14;" parent="16" vertex="1">
                    <mxGeometry y="30" width="180" height="30" as="geometry"/>
                </mxCell>
                <object label="Repository" hedietLinkedDataV1_path="../src/message/message.repository.ts" id="19">
                    <mxCell style="text;strokeColor=none;fillColor=none;align=left;verticalAlign=middle;spacingLeft=4;spacingRight=4;overflow=hidden;points=[[0,0.5],[1,0.5]];portConstraint=eastwest;rotatable=0;whiteSpace=wrap;html=1;fontSize=14;" parent="16" vertex="1">
                        <mxGeometry y="60" width="180" height="30" as="geometry"/>
                    </mxCell>
                </object>
                <mxCell id="39" value="" style="endArrow=classic;html=1;fontFamily=Helvetica;fontSize=18;fontColor=default;exitX=1;exitY=0.5;exitDx=0;exitDy=0;edgeStyle=orthogonalEdgeStyle;entryX=1;entryY=0.5;entryDx=0;entryDy=0;" parent="16" source="18" target="19" edge="1">
                    <mxGeometry width="50" height="50" relative="1" as="geometry">
                        <mxPoint x="230" y="50" as="sourcePoint"/>
                        <mxPoint x="240" y="59" as="targetPoint"/>
                        <Array as="points">
                            <mxPoint x="198" y="45"/>
                            <mxPoint x="198" y="75"/>
                        </Array>
                    </mxGeometry>
                </mxCell>
                <mxCell id="40" value="" style="endArrow=classic;html=1;fontFamily=Helvetica;fontSize=18;fontColor=default;exitX=1;exitY=0.5;exitDx=0;exitDy=0;entryX=0;entryY=0.5;entryDx=0;entryDy=0;" parent="1" source="8" target="18" edge="1">
                    <mxGeometry width="50" height="50" relative="1" as="geometry">
                        <mxPoint x="623" y="319" as="sourcePoint"/>
                        <mxPoint x="673" y="269" as="targetPoint"/>
                    </mxGeometry>
                </mxCell>
                <mxCell id="41" value="" style="endArrow=classic;html=1;fontFamily=Helvetica;fontSize=14;fontColor=default;exitX=0.5;exitY=1;exitDx=0;exitDy=0;entryX=0.5;entryY=0;entryDx=0;entryDy=0;" parent="1" source="3" target="6" edge="1">
                    <mxGeometry width="50" height="50" relative="1" as="geometry">
                        <mxPoint x="430" y="370" as="sourcePoint"/>
                        <mxPoint x="480" y="320" as="targetPoint"/>
                    </mxGeometry>
                </mxCell>
            </root>
        </mxGraphModel>
    </diagram>
</mxfile>